<svg xmlns="http://www.w3.org/2000/svg" width="256" height="256" viewBox="0 0 256 256" fill="none">

  <!-- Fondo -->
  <rect x="16" y="16" width="224" height="224" rx="24" fill="#F4F6F8" stroke="#1F2933" stroke-width="8"></rect>

  <!-- Billete -->
  <rect x="64" y="48" width="128" height="64" rx="8" fill="#C7EDE6" stroke="#1F2933" stroke-width="8"></rect>
  <circle cx="128" cy="80" r="14" fill="#FFFFFF" stroke="#1F2933" stroke-width="6"></circle>

  <!-- Flechas hacia afuera -->
  <line x1="128" y1="24" x2="128" y2="48" stroke="#1F2933" stroke-width="8"></line>
  <polyline points="112,40 128,24 144,40" fill="none" stroke="#1F2933" stroke-width="8"></polyline>

  <!-- Mano (silueta simplificada) -->
  <path d="
    M56 160
    H152
    C184 160 184 208 152 208
    H96
    L72 224
    C56 236 40 224 40 208
    V176
    C40 168 48 160 56 160
    Z" fill="#F4C7A1" stroke="#1F2933" stroke-width="8"></path>

  <!-- Dedos -->
  <rect x="72" y="136" width="20" height="24" rx="6" fill="#F4C7A1" stroke="#1F2933" stroke-width="6"></rect>
  <rect x="96" y="136" width="20" height="24" rx="6" fill="#F4C7A1" stroke="#1F2933" stroke-width="6"></rect>
  <rect x="120" y="136" width="20" height="24" rx="6" fill="#F4C7A1" stroke="#1F2933" stroke-width="6"></rect>

</svg>
